Coordinates
version=1
nRows=12
nColumns=28
inDegrees=yes

Units are S.I. units (second, meters, Newtons, ...)
Angles are in degrees.

endheader
time	pelvis_tilt	pelvis_list	pelvis_rotation	pelvis_tx	pelvis_ty	pelvis_tz	hip_flexion_r	hip_adduction_r	hip_rotation_r	knee_angle_r	ankle_angle_r	subtalar_angle_r	mtp_angle_r	hip_flexion_l	hip_adduction_l	hip_rotation_l	knee_angle_l	socket_flexion	socket_adduction	socket_rotation	socket_tx	socket_ty	socket_tz	foot_flex	lumbar_extension	lumbar_bending	lumbar_rotation
      0.26666667	     -0.78812022	      5.02367704	     -2.57260181	     -0.39087712	      0.98366873	      0.23690722	     15.15229056	     -7.84090211	      1.88401994	    -64.36650856	    -13.17705822	    -12.81696431	     13.67706097	     10.67046610	      9.96928760	      1.72214212	    -26.78008569	     -5.24307476	      0.00000000	      0.00000000	      0.00000000	      0.00000000	      0.00000000	      4.92648436	     -6.71446392	     -6.97502023	     -3.98543635
      0.27083333	     -0.72069486	      4.83246006	     -2.56823437	     -0.38525949	      0.98473567	      0.23682971	     15.86224025	     -7.65623998	      1.88562945	    -64.42471636	    -12.42431184	    -13.20130026	     13.60284213	      9.99423437	      9.78654097	      1.82368878	    -26.34891649	     -5.18515997	      0.00000000	      0.00000000	      0.00000000	      0.00000000	      0.00000000	      4.91780457	     -6.83193502	     -6.73178298	     -4.14668703
      0.27500000	     -0.31488515	      4.82570809	     -2.71552443	     -0.37901553	      0.98655837	      0.23710964	     16.11758655	     -7.65633948	      2.01251931	    -64.30691688	    -11.63102137	    -13.76962554	     12.66485853	      8.53273139	      9.78079654	      1.86745332	    -24.71507139	     -4.40143184	      0.00000000	      0.00000000	      0.00000000	      0.00000000	      0.00000000	      5.01653590	     -7.23071789	     -6.72294297	     -4.55946184
      0.27916667	     -0.28781609	      4.57228228	     -2.69661443	     -0.37326150	      0.98758424	      0.23711804	     16.77073593	     -7.35753289	      2.01791970	    -64.17478574	    -10.74452960	    -14.14769412	     12.59923078	      7.88336884	      9.52227042	      2.00406265	    -24.33359635	     -4.42501902	      0.00000000	      0.00000000	      0.00000000	      0.00000000	      0.00000000	      5.03685449	     -7.26396434	     -6.41840694	     -4.63570525
      0.28333333	     -0.25079948	      4.36682726	     -2.67241183	     -0.36759565	      0.98861823	      0.23700068	     17.42762114	     -7.13308920	      2.02587434	    -64.01683563	     -9.95034606	    -14.56989989	     12.44913135	      7.18453276	      9.32476442	      2.10932908	    -23.76548340	     -4.29957557	      0.00000000	      0.00000000	      0.00000000	      0.00000000	      0.00000000	      5.05316857	     -7.33236801	     -6.14579989	     -4.85734549
      0.28750000	     -0.21256623	      4.15914680	     -2.65093821	     -0.36181597	      0.98967594	      0.23699470	     18.03602635	     -6.89145542	      2.02432646	    -63.77095082	     -9.19281510	    -15.00945405	     12.25564665	      6.43610098	      9.11351742	      2.23792761	    -23.08229741	     -4.11265378	      0.00000000	      0.00000000	      0.00000000	      0.00000000	      0.00000000	      5.06622086	     -7.39073766	     -5.89562010	     -5.10949156
      0.29166667	      0.32562051	      4.05571045	     -2.79117837	     -0.35558504	      0.99166607	      0.23729080	     18.02135542	     -6.76961703	      2.10253290	    -63.35504431	     -8.54974789	    -15.45724321	     10.99677121	      4.73718709	      9.00924954	      2.34569799	    -21.17724799	     -3.17232363	      0.00000000	      0.00000000	      0.00000000	      0.00000000	      0.00000000	      5.08468003	     -7.95988203	     -5.78055059	     -5.39208394
      0.29583333	      0.28269302	      3.79764199	     -2.73563207	     -0.35003797	      0.99249298	      0.23721504	     18.69748855	     -6.45472903	      2.08510386	    -63.01526387	     -7.78164720	    -15.78015853	     10.92317287	      4.18114430	      8.74188106	      2.45704648	    -20.78783679	     -3.18904446	      0.00000000	      0.00000000	      0.00000000	      0.00000000	      0.00000000	      5.06238393	     -7.95655335	     -5.45615747	     -5.50000088
      0.30000000	      0.60181320	      3.59953935	     -2.78817227	     -0.34401084	      0.99404092	      0.23740703	     18.88360420	     -6.20118920	      2.11463078	    -62.51689265	     -7.06635580	    -16.17549247	      9.80249546	      2.85064200	      8.53288271	      2.58954475	    -19.26921184	     -2.48411339	      0.00000000	      0.00000000	      0.00000000	      0.00000000	      0.00000000	      5.07137218	     -8.30855470	     -5.23028049	     -5.77625154
      0.30416667	      0.51842814	      3.33421768	     -2.71902565	     -0.33846246	      0.99474895	      0.23735203	     19.55308387	     -5.86864997	      2.08413796	    -62.05705350	     -6.36750450	    -16.48803168	      9.73853485	      2.34056694	      8.25137077	      2.70638620	    -18.88585330	     -2.50600726	      0.00000000	      0.00000000	      0.00000000	      0.00000000	      0.00000000	      5.04130583	     -8.26196572	     -4.90760803	     -5.91887813
      0.30833333	      0.45810345	      3.06477187	     -2.62925540	     -0.33286817	      0.99550296	      0.23729021	     20.15884849	     -5.53153404	      2.03345077	    -61.52912754	     -5.73488442	    -16.86160622	      9.58089175	      1.74458248	      7.96199814	      2.85376758	    -18.30502985	     -2.39525597	      0.00000000	      0.00000000	      0.00000000	      0.00000000	      0.00000000	      5.03482485	     -8.22907745	     -4.57369467	     -6.17177592
      0.31250000	      0.45783049	      3.02266460	     -2.54614876	     -0.32793379	      0.99599770	      0.23719736	     20.84954314	     -5.50748148	      1.99156062	    -61.08944297	     -5.63552827	    -16.90909351	      9.57159005	      1.32144843	      7.93141149	      2.87365449	    -18.24387927	     -2.56121440	      0.00000000	      0.00000000	      0.00000000	      0.00000000	      0.00000000	      5.04848601	     -8.39322138	     -4.55867083	     -6.19515313
